Format                           : Matroska
File size                        : 4.37 GiB
Duration                         : 1h 34mn
Overall bit rate                 : 6 594 Kbps
Encoded date                     : UTC 2011-06-16 03:07:51
Writing application              : mkvmerge v2.2.0 ('Turn It On Again') built on Mar  4 2008 13:20:25
Writing library                  : libebml v0.7.7 + libmatroska v0.8.1

Video
ID                               : 1
Format                           : AVC
Format/Info                      : Advanced Video Codec
Format profile                   : High@L4.1
Format settings, CABAC           : Yes
Format settings, ReFrames        : 8 frames
Muxing mode                      : Container profile=Unknown@4.1
Codec ID                         : V_MPEG4/ISO/AVC
Duration                         : 1h 34mn
Bit rate                         : 5 823 Kbps
Nominal bit rate                 : 5 955 Kbps
Width                            : 1 280 pixels
Height                           : 692 pixels
Display aspect ratio             : 1.850
Frame rate                       : 23.976 fps
Resolution                       : 8 bits
Colorimetry                      : 4:2:0
Scan type                        : Progressive
Bits/(Pixel*Frame)               : 0.274
Stream size                      : 3.86 GiB (88%)
Writing library                  : x264 core 98 r1649 c54c47d
Encoding settings                : cabac=1 / ref=8 / deblock=1:-3:-3 / analyse=0x3:0x113 / me=umh / subme=9 / psy=1 / psy_rd=1.10:0.00 / mixed_ref=1 / me_range=32 / chroma_me=1 / trellis=2 / 8x8dct=1 / cqm=0 / deadzone=21,11 / fast_pskip=0 / chroma_qp_offset=-4 / threads=6 / sliced_threads=0 / nr=0 / decimate=0 / interlaced=0 / constrained_intra=0 / bframes=6 / b_pyramid=2 / b_adapt=2 / b_bias=0 / direct=3 / weightb=1 / weightp=2 / keyint=250 / keyint_min=25 / scenecut=40 / intra_refresh=0 / rc_lookahead=48 / rc=2pass / mbtree=1 / bitrate=5955 / ratetol=1.0 / qcomp=0.60 / qpmin=10 / qpmax=51 / qpstep=4 / cplxblur=20.0 / qblur=0.5 / ip_ratio=1.40 / aq=1:0.80
Language                         : English

Audio
ID                               : 2
Format                           : AC-3
Format/Info                      : Audio Coding 3
Codec ID                         : A_AC3
Duration                         : 1h 34mn
Bit rate mode                    : Constant
Bit rate                         : 640 Kbps
Channel(s)                       : 6 channels
Channel positions                : Front: L C R, Side: L R, LFE
Sampling rate                    : 48.0 KHz
Stream size                      : 434 MiB (10%)
Title                            : 国语
Language                         : Chinese
 
http://www.postimg.com/42000/photo-41383.jpg